<?xml version="1.0" encoding="utf-8"?>
<!-- Generator: Adobe Illustrator 23.0.1, SVG Export Plug-In . SVG Version: 6.00 Build 0)  -->
<svg version="1.1" id="Layer_1" xmlns="http://www.w3.org/2000/svg" xmlns:xlink="http://www.w3.org/1999/xlink" x="0px" y="0px"
	 viewBox="0 0 200 80" style="enable-background:new 0 0 200 80;" xml:space="preserve">
<style type="text/css">
	.st0{fill:url(#SVGID_1_);}
	.st1{fill:url(#SVGID_2_);}
	.st2{fill:url(#SVGID_3_);}
	.st3{fill:url(#SVGID_4_);}
	.st4{fill:url(#SVGID_5_);}
	.st5{fill:url(#SVGID_6_);}
	.st6{fill:url(#SVGID_7_);}
	.st7{fill:url(#SVGID_8_);}
	.st8{fill:url(#SVGID_9_);}
	.st9{fill:url(#SVGID_10_);}
	.st10{fill:url(#SVGID_11_);}
	.st11{fill:url(#SVGID_12_);}
	.st12{fill:url(#SVGID_13_);}
	.st13{fill:url(#SVGID_14_);}
	.st14{fill:url(#SVGID_15_);}
	.st15{fill:url(#SVGID_16_);}
	.st16{fill:url(#SVGID_17_);}
	.st17{fill:url(#SVGID_18_);}
	.st18{fill:url(#SVGID_19_);}
	.st19{fill:url(#SVGID_20_);}
	.st20{fill:url(#SVGID_21_);}
	.st21{fill:url(#SVGID_22_);}
	.st22{fill:url(#SVGID_23_);}
</style>
<g>
	
		<linearGradient id="SVGID_1_" gradientUnits="userSpaceOnUse" x1="27.408" y1="73.5081" x2="27.408" y2="21.4681" gradientTransform="matrix(1 0 0 -1 0 82)">
		<stop  offset="5.618000e-03" style="stop-color:#FBC926"/>
		<stop  offset="0.5955" style="stop-color:#C3922E"/>
		<stop  offset="0.8708" style="stop-color:#EED688"/>
	</linearGradient>
	<path class="st0" d="M27.4,18.9c-8.9,0-16.1,7.5-16.1,16.6c0,1.2,0.9,2.1,2,2.1c1.2,0,2-0.9,2-2.1c0-6.9,5.4-12.4,12.2-12.4
		c6.7,0,12.2,5.6,12.2,12.4S34.1,48,27.4,48c-1.2,0-2,0.9-2,2.1s0.9,2.1,2,2.1c8.9,0,16.1-7.5,16.1-16.6
		C43.6,26.3,36.3,18.9,27.4,18.9z"/>
	
		<linearGradient id="SVGID_2_" gradientUnits="userSpaceOnUse" x1="28.3832" y1="73.5081" x2="28.3832" y2="21.4681" gradientTransform="matrix(1 0 0 -1 0 82)">
		<stop  offset="5.618000e-03" style="stop-color:#FBC926"/>
		<stop  offset="0.5955" style="stop-color:#C3922E"/>
		<stop  offset="0.8708" style="stop-color:#EED688"/>
	</linearGradient>
	<path class="st1" d="M33.8,30.8c1.4-1.8,1.6-2.1,0.9-2.8c-0.6-0.5-1.3-0.2-2.6,1.3c-0.4,0.4-2.8,3.5-2.8,3.5l-1.1,1.9
		c-0.2-0.1-0.6-0.1-0.8-0.1c-0.4,0-0.7,0.1-0.9,0.2l0,0l-0.5-1.1c0,0-1.5-2.2-1.9-2.5c-0.1-0.1-1.5-1.9-2.3-1.2s0.2,2.3,0.6,2.8
		c0.1,0.4,1.9,2.3,1.9,2.3l0.9,0.7l0.1,0.1c-0.1,0.4-0.2,0.7-0.2,1.1c0,1.3,1.1,2.5,2.3,2.5c1.3,0,2.3-1.1,2.3-2.5
		c0-0.5-0.1-0.8-0.2-1.2l1.6-1.4C31,34.3,33.6,31.1,33.8,30.8z M27.4,38c-0.6,0-1.2-0.5-1.2-1.2c0-0.6,0.5-1.2,1.2-1.2
		c0.6,0,1.2,0.5,1.2,1.2C28.6,37.5,28,38,27.4,38z"/>
	
		<linearGradient id="SVGID_3_" gradientUnits="userSpaceOnUse" x1="16.0325" y1="73.5081" x2="16.0325" y2="21.4681" gradientTransform="matrix(1 0 0 -1 0 82)">
		<stop  offset="5.618000e-03" style="stop-color:#FBC926"/>
		<stop  offset="0.5955" style="stop-color:#C3922E"/>
		<stop  offset="0.8708" style="stop-color:#EED688"/>
	</linearGradient>
	<path class="st2" d="M12.6,47.1l4.1,3.9c0.9,0.8,3.2-0.9,3.2-0.9l-6.6-6.2C13.3,43.7,11.6,46.2,12.6,47.1z"/>
	
		<linearGradient id="SVGID_4_" gradientUnits="userSpaceOnUse" x1="19.4965" y1="73.5081" x2="19.4965" y2="21.4681" gradientTransform="matrix(1 0 0 -1 0 82)">
		<stop  offset="5.618000e-03" style="stop-color:#FBC926"/>
		<stop  offset="0.5955" style="stop-color:#C3922E"/>
		<stop  offset="0.8708" style="stop-color:#EED688"/>
	</linearGradient>
	<path class="st3" d="M17.6,40.5l1.9,1.8l1.9-2.1c0.1-0.2,0.1-0.5,0-0.7L20,38.2c-0.2-0.2-0.5-0.1-0.6,0L17.6,40.5z"/>
	
		<linearGradient id="SVGID_5_" gradientUnits="userSpaceOnUse" x1="22.8892" y1="73.5081" x2="22.8892" y2="21.4681" gradientTransform="matrix(1 0 0 -1 0 82)">
		<stop  offset="5.618000e-03" style="stop-color:#FBC926"/>
		<stop  offset="0.5955" style="stop-color:#C3922E"/>
		<stop  offset="0.8708" style="stop-color:#EED688"/>
	</linearGradient>
	<path class="st4" d="M22.8,41.5L21,43.6l1.9,1.8l1.9-2.1c0.1-0.2,0.1-0.5,0-0.7l-1.2-1.2C23.3,41.4,23,41.4,22.8,41.5z"/>
	
		<linearGradient id="SVGID_6_" gradientUnits="userSpaceOnUse" x1="18.3944" y1="73.5081" x2="18.3944" y2="21.4681" gradientTransform="matrix(1 0 0 -1 0 82)">
		<stop  offset="5.618000e-03" style="stop-color:#FBC926"/>
		<stop  offset="0.5955" style="stop-color:#C3922E"/>
		<stop  offset="0.8708" style="stop-color:#EED688"/>
	</linearGradient>
	<path class="st5" d="M22.4,45.8l-1.9-1.8L19,42.7l-1.8-1.8l-0.6-0.5c-0.5-0.5-1.2-0.4-1.6,0.1L14,41.8c-0.5,0.5-0.4,1.2,0,1.6
		l6.2,5.8c0.5,0.5,1.2,0.4,1.6-0.1l1.1-1.2c0.5-0.5,0.4-1.2-0.1-1.6L22.4,45.8z"/>
	
		<linearGradient id="SVGID_7_" gradientUnits="userSpaceOnUse" x1="13.6032" y1="73.5081" x2="13.6032" y2="21.4681" gradientTransform="matrix(1 0 0 -1 0 82)">
		<stop  offset="5.618000e-03" style="stop-color:#FBC926"/>
		<stop  offset="0.5955" style="stop-color:#C3922E"/>
		<stop  offset="0.8708" style="stop-color:#EED688"/>
	</linearGradient>
	<polygon class="st6" points="13.3,48.5 15.2,50.4 14,51.9 12,50.1 	"/>
	
		<linearGradient id="SVGID_8_" gradientUnits="userSpaceOnUse" x1="49.6945" y1="73.5081" x2="49.6945" y2="21.4681" gradientTransform="matrix(1 0 0 -1 0 82)">
		<stop  offset="5.618000e-03" style="stop-color:#FBC926"/>
		<stop  offset="0.5955" style="stop-color:#C3922E"/>
		<stop  offset="0.8708" style="stop-color:#EED688"/>
	</linearGradient>
	<path class="st7" d="M42.1,33.4c1.8,0,4.4,0,7.8,0c1.3,0,2.2,0.1,3,0.2c1.1,0.2,2,0.7,2.6,1.5c0.7,0.8,1.1,1.8,1.1,2.8
		c0,1.8-0.8,3.2-2.5,4.1c0.7,0.5,1.2,1.1,1.5,1.6c0.1,0.5,0.4,1.2,0.5,2.2c0.1,1.5,0.5,2.8,1.1,3.9h-3.7c-0.4-0.9-0.6-1.9-0.7-2.6
		c-0.2-1.4-0.5-2.3-0.7-2.7c-0.4-0.6-1.2-0.9-2.5-0.9h-3.9v6.1h-3.6C42.1,49.9,42.1,33.4,42.1,33.4z M53,38.7c0-1.5-0.7-2.2-2.3-2.2
		h-5v4.4l4.7-0.1C52.1,40.8,53,40.1,53,38.7z"/>
	
		<linearGradient id="SVGID_9_" gradientUnits="userSpaceOnUse" x1="63.9087" y1="73.5081" x2="63.9087" y2="21.4681" gradientTransform="matrix(1 0 0 -1 0 82)">
		<stop  offset="5.618000e-03" style="stop-color:#FBC926"/>
		<stop  offset="0.5955" style="stop-color:#C3922E"/>
		<stop  offset="0.8708" style="stop-color:#EED688"/>
	</linearGradient>
	<path class="st8" d="M61,44.9c0.4,1.9,1.5,2.8,3.3,2.8c1.2,0,2-0.5,2.6-1.4l3.3,0.4c-0.7,2.5-2.9,3.7-6.6,3.7
		c-1.8,0-3.2-0.6-4.3-1.9c-1.2-1.3-1.8-2.7-1.8-4.4c0-1.9,0.6-3.5,1.9-4.7c1.3-1.2,2.8-1.8,4.7-1.8c2,0,3.6,0.6,4.7,1.9
		c1.1,1.2,1.6,2.9,1.6,5V45L61,44.9L61,44.9z M67.1,42.5c-0.1-0.7-0.5-1.3-0.9-1.8c-0.5-0.4-1.2-0.6-1.9-0.6c-0.7,0-1.4,0.2-2,0.7
		c-0.6,0.5-1.1,1.1-1.2,1.8L67.1,42.5L67.1,42.5z"/>
	
		<linearGradient id="SVGID_10_" gradientUnits="userSpaceOnUse" x1="77.5965" y1="73.5081" x2="77.5965" y2="21.4681" gradientTransform="matrix(1 0 0 -1 0 82)">
		<stop  offset="5.618000e-03" style="stop-color:#FBC926"/>
		<stop  offset="0.5955" style="stop-color:#C3922E"/>
		<stop  offset="0.8708" style="stop-color:#EED688"/>
	</linearGradient>
	<path class="st9" d="M74.9,46L74.9,46c0.4,1.2,1.3,1.9,2.9,1.9c0.5,0,0.9-0.1,1.4-0.2c0.6-0.2,0.8-0.5,0.8-0.9c0-0.6-0.7-1.1-2-1.3
		c-2.3-0.5-3.5-0.7-4-0.9c-1.4-0.6-2.1-1.6-2.1-3c0-1.4,0.6-2.5,1.9-3.2c0.9-0.6,2.2-0.8,3.7-0.8c3.3,0,5.3,1.3,5.7,3.9l-3.4,0.2
		c-0.2-0.6-0.5-1.1-0.8-1.3C78.8,40,78.3,40,77.6,40c-1.4,0-2.1,0.4-2.1,1.2c0,0.5,0.7,0.8,2.1,1.1c2,0.4,3.3,0.6,3.9,0.9
		c1.4,0.6,2.1,1.6,2.1,3.2c0,1.4-0.7,2.6-2,3.3c-1.1,0.6-2.3,0.8-3.9,0.8c-1.6,0-2.9-0.2-3.9-0.8c-1.2-0.7-1.9-1.8-2.2-3.3L74.9,46z
		"/>
	
		<linearGradient id="SVGID_11_" gradientUnits="userSpaceOnUse" x1="91.8692" y1="73.5081" x2="91.8692" y2="21.4681" gradientTransform="matrix(1 0 0 -1 0 82)">
		<stop  offset="5.618000e-03" style="stop-color:#FBC926"/>
		<stop  offset="0.5955" style="stop-color:#C3922E"/>
		<stop  offset="0.8708" style="stop-color:#EED688"/>
	</linearGradient>
	<path class="st10" d="M85,37.9h3.3v1.8c1.3-1.4,2.7-2.1,4.4-2.1s3.2,0.6,4.3,1.9c1.2,1.2,1.8,2.7,1.8,4.6c0,1.9-0.6,3.4-1.8,4.6
		c-1.2,1.2-2.7,1.8-4.4,1.8c-1.6,0-3-0.6-4.2-1.8v5.6H85V37.9L85,37.9z M91.9,47.5c1.1,0,1.9-0.4,2.6-1.1s0.9-1.5,0.9-2.6
		c0-1.1-0.4-1.9-1.1-2.6s-1.5-0.9-2.5-0.9c-1.1,0-1.9,0.4-2.5,1.1c-0.6,0.7-0.9,1.5-0.9,2.6c0,1.1,0.4,1.9,1.1,2.5
		C90.1,47.1,90.9,47.5,91.9,47.5z"/>
	
		<linearGradient id="SVGID_12_" gradientUnits="userSpaceOnUse" x1="106.3174" y1="73.5081" x2="106.3174" y2="21.4681" gradientTransform="matrix(1 0 0 -1 0 82)">
		<stop  offset="5.618000e-03" style="stop-color:#FBC926"/>
		<stop  offset="0.5955" style="stop-color:#C3922E"/>
		<stop  offset="0.8708" style="stop-color:#EED688"/>
	</linearGradient>
	<path class="st11" d="M106.3,37.5c1.9,0,3.5,0.6,4.8,1.6c1.3,1.2,2,2.7,2,4.7c0,2.8-1.2,4.7-3.6,5.8c-0.8,0.5-2,0.6-3.5,0.6
		c-1.9,0-3.4-0.6-4.6-1.9c-1.2-1.2-1.8-2.8-1.8-4.7c0-1.9,0.7-3.4,2-4.6C102.9,38,104.4,37.5,106.3,37.5z M106.3,47.5
		c1.1,0,1.9-0.4,2.6-1.1c0.6-0.7,0.8-1.5,0.8-2.7c0-1.1-0.4-1.9-0.9-2.6c-0.6-0.7-1.4-1.1-2.5-1.1c-1.1,0-1.9,0.4-2.5,1.1
		c-0.6,0.7-0.9,1.6-0.9,2.7s0.4,1.9,0.9,2.6C104.5,47.1,105.3,47.5,106.3,47.5z"/>
	
		<linearGradient id="SVGID_13_" gradientUnits="userSpaceOnUse" x1="120.7657" y1="73.5081" x2="120.7657" y2="21.4681" gradientTransform="matrix(1 0 0 -1 0 82)">
		<stop  offset="5.618000e-03" style="stop-color:#FBC926"/>
		<stop  offset="0.5955" style="stop-color:#C3922E"/>
		<stop  offset="0.8708" style="stop-color:#EED688"/>
	</linearGradient>
	<path class="st12" d="M114.6,37.9h3.3v1.8c0.7-0.8,1.3-1.3,2-1.6c0.7-0.4,1.5-0.5,2.6-0.5c1.5,0,2.6,0.5,3.4,1.3
		c0.8,0.8,1.2,2,1.2,3.5v7.6h-3.4v-6.2c0-2.1-0.8-3.2-2.5-3.2c-2.1,0-3.2,1.3-3.2,3.7v5.7h-3.3L114.6,37.9L114.6,37.9z"/>
	
		<linearGradient id="SVGID_14_" gradientUnits="userSpaceOnUse" x1="134.3364" y1="73.5081" x2="134.3364" y2="21.4681" gradientTransform="matrix(1 0 0 -1 0 82)">
		<stop  offset="5.618000e-03" style="stop-color:#FBC926"/>
		<stop  offset="0.5955" style="stop-color:#C3922E"/>
		<stop  offset="0.8708" style="stop-color:#EED688"/>
	</linearGradient>
	<path class="st13" d="M131.5,46L131.5,46c0.4,1.2,1.3,1.9,2.9,1.9c0.5,0,0.9-0.1,1.4-0.2c0.6-0.2,0.8-0.5,0.8-0.9
		c0-0.6-0.7-1.1-2.1-1.3c-2.1-0.4-3.4-0.7-3.9-0.8c-1.4-0.6-2-1.6-2-3s0.6-2.5,1.9-3.2c0.9-0.6,2.2-0.8,3.7-0.8
		c3.3,0,5.3,1.3,5.7,3.9l-3.4,0.2c-0.2-0.6-0.5-1.1-0.8-1.3c-0.4-0.2-0.8-0.2-1.5-0.2c-1.4,0-2.1,0.4-2.1,1.2c0,0.5,0.7,0.8,2.1,1.1
		c2,0.4,3.3,0.6,3.9,0.9c1.4,0.6,2.1,1.6,2.1,3.2c0,1.4-0.7,2.6-2,3.3c-1.1,0.6-2.3,0.8-3.9,0.8c-1.6,0-2.9-0.2-3.9-0.8
		c-1.2-0.7-1.9-1.8-2.2-3.3L131.5,46z"/>
	
		<linearGradient id="SVGID_15_" gradientUnits="userSpaceOnUse" x1="143.8711" y1="73.5081" x2="143.8711" y2="21.4681" gradientTransform="matrix(1 0 0 -1 0 82)">
		<stop  offset="5.618000e-03" style="stop-color:#FBC926"/>
		<stop  offset="0.5955" style="stop-color:#C3922E"/>
		<stop  offset="0.8708" style="stop-color:#EED688"/>
	</linearGradient>
	<path class="st14" d="M142.2,33.6h3.4v3.2h-3.4V33.6z M142.2,37.9h3.4v12h-3.4V37.9z"/>
	
		<linearGradient id="SVGID_16_" gradientUnits="userSpaceOnUse" x1="154.8096" y1="73.5081" x2="154.8096" y2="21.4681" gradientTransform="matrix(1 0 0 -1 0 82)">
		<stop  offset="5.618000e-03" style="stop-color:#FBC926"/>
		<stop  offset="0.5955" style="stop-color:#C3922E"/>
		<stop  offset="0.8708" style="stop-color:#EED688"/>
	</linearGradient>
	<path class="st15" d="M147.3,33.6h7.7c4.4,0,6.7,1.3,6.7,4c0,1.5-0.7,2.7-2.2,3.7c1.9,0.9,2.8,2.3,2.8,4.2c0,2-0.9,3.4-2.7,4
		c-1.1,0.4-2.8,0.6-5.1,0.6c-1.5,0-3.9,0-7,0V33.6H147.3z M155.5,39.9c1.6,0,2.6-0.6,2.6-1.6c0-0.5-0.2-0.8-0.6-1.2
		c-0.4-0.4-0.7-0.5-1.2-0.5h-5.5v3.3C150.8,39.9,155.5,39.9,155.5,39.9z M155.9,47c1.8,0,2.7-0.7,2.7-2c0-1.4-0.9-2.1-2.7-2.1h-4.9
		V47H155.9z"/>
	
		<linearGradient id="SVGID_17_" gradientUnits="userSpaceOnUse" x1="165.9821" y1="73.5081" x2="165.9821" y2="21.4681" gradientTransform="matrix(1 0 0 -1 0 82)">
		<stop  offset="5.618000e-03" style="stop-color:#FBC926"/>
		<stop  offset="0.5955" style="stop-color:#C3922E"/>
		<stop  offset="0.8708" style="stop-color:#EED688"/>
	</linearGradient>
	<path class="st16" d="M164.3,33.6h3.4v3.2h-3.4V33.6z M164.3,37.9h3.4v12h-3.4V37.9z"/>
	
		<linearGradient id="SVGID_18_" gradientUnits="userSpaceOnUse" x1="175.6923" y1="73.5081" x2="175.6923" y2="21.4681" gradientTransform="matrix(1 0 0 -1 0 82)">
		<stop  offset="5.618000e-03" style="stop-color:#FBC926"/>
		<stop  offset="0.5955" style="stop-color:#C3922E"/>
		<stop  offset="0.8708" style="stop-color:#EED688"/>
	</linearGradient>
	<path class="st17" d="M179.1,33.4h3.4v16.5h-3.3v-1.4c-0.7,0.7-1.4,1.2-2,1.4c-0.7,0.2-1.4,0.4-2.3,0.5c-1.8,0-3.2-0.6-4.3-1.8
		c-1.2-1.2-1.8-2.7-1.8-4.4c0-1.9,0.6-3.4,1.8-4.6c1.2-1.2,2.6-1.9,4.4-1.9c1.5,0,2.9,0.6,4.3,1.8v-6.1H179.1z M175.6,47.5
		L175.6,47.5c1.1,0,1.9-0.4,2.6-0.9c0.6-0.6,0.9-1.5,0.9-2.6c0-1.1-0.4-1.9-1.1-2.6c-0.7-0.7-1.5-1.1-2.5-1.1
		c-0.9,0-1.9,0.4-2.5,1.1c-0.7,0.7-1.1,1.5-1.1,2.6c0,1.1,0.4,1.9,1.1,2.6C173.8,47.1,174.7,47.5,175.6,47.5z"/>
	<g>
		
			<linearGradient id="SVGID_19_" gradientUnits="userSpaceOnUse" x1="184.7866" y1="33.2843" x2="186.5089" y2="33.2843" gradientTransform="matrix(1 0 0 -1 0 82)">
			<stop  offset="5.618000e-03" style="stop-color:#FBC926"/>
			<stop  offset="0.5955" style="stop-color:#C3922E"/>
			<stop  offset="0.8708" style="stop-color:#EED688"/>
		</linearGradient>
		<path class="st18" d="M185.5,49.8v-2h-0.7v-0.2h1.8v0.2h-0.7v2H185.5z"/>
		
			<linearGradient id="SVGID_20_" gradientUnits="userSpaceOnUse" x1="186.7948" y1="33.2258" x2="188.8687" y2="33.2258" gradientTransform="matrix(1 0 0 -1 0 82)">
			<stop  offset="5.618000e-03" style="stop-color:#FBC926"/>
			<stop  offset="0.5955" style="stop-color:#C3922E"/>
			<stop  offset="0.8708" style="stop-color:#EED688"/>
		</linearGradient>
		<path class="st19" d="M186.7,49.8v-2.2h0.5l0.5,1.6c0,0.1,0.1,0.2,0.1,0.4c0-0.1,0.1-0.2,0.1-0.4l0.5-1.5h0.4v2.2h-0.2v-2
			l-0.6,1.9h-0.2l-0.6-1.9v1.9H186.7z"/>
	</g>
	<g>
		
			<linearGradient id="SVGID_21_" gradientUnits="userSpaceOnUse" x1="171.5009" y1="41.5605" x2="164.8034" y2="17.795" gradientTransform="matrix(1 0 0 -1 0 82)">
			<stop  offset="5.618000e-03" style="stop-color:#FBC926"/>
			<stop  offset="0.5955" style="stop-color:#C3922E"/>
			<stop  offset="0.8708" style="stop-color:#EED688"/>
		</linearGradient>
		<path class="st20" d="M163.9,52.3h1.3c0.1,0,0.2,0,0.4,0.1c0.1,0.1,0.1,0.1,0.2,0.2l2,5.3c0.1,0.1,0.1,0.4,0.2,0.6
			c0.1,0.2,0.1,0.5,0.1,0.7c0.1-0.5,0.2-0.8,0.4-1.2l2-5.3c0-0.1,0.1-0.2,0.2-0.2c0.1-0.1,0.2-0.1,0.4-0.1h1.3l-3.4,8.7h-1.4
			L163.9,52.3z"/>
		
			<linearGradient id="SVGID_22_" gradientUnits="userSpaceOnUse" x1="178.0912" y1="39.7117" x2="171.3774" y2="15.8885" gradientTransform="matrix(1 0 0 -1 0 82)">
			<stop  offset="5.618000e-03" style="stop-color:#FBC926"/>
			<stop  offset="0.5955" style="stop-color:#C3922E"/>
			<stop  offset="0.8708" style="stop-color:#EED688"/>
		</linearGradient>
		<path class="st21" d="M174.8,60.9h-1.5v-8.7h1.5V60.9z"/>
		
			<linearGradient id="SVGID_23_" gradientUnits="userSpaceOnUse" x1="182.7803" y1="38.3266" x2="176.0796" y2="14.5501" gradientTransform="matrix(1 0 0 -1 0 82)">
			<stop  offset="5.618000e-03" style="stop-color:#FBC926"/>
			<stop  offset="0.5955" style="stop-color:#C3922E"/>
			<stop  offset="0.8708" style="stop-color:#EED688"/>
		</linearGradient>
		<path class="st22" d="M178.3,57.9v3h-1.5v-8.7h2.8c0.6,0,1.1,0.1,1.5,0.2c0.5,0.1,0.7,0.4,1.1,0.6c0.2,0.2,0.5,0.6,0.6,0.8
			c0.1,0.4,0.2,0.7,0.2,1.2s-0.1,0.8-0.2,1.2c-0.1,0.4-0.4,0.7-0.6,0.9c-0.2,0.2-0.6,0.5-1.1,0.6c-0.4,0.1-0.9,0.2-1.4,0.2h-1.4
			V57.9z M178.3,56.6h1.2c0.2,0,0.6,0,0.7-0.1c0.2-0.1,0.4-0.2,0.6-0.4c0.1-0.1,0.2-0.4,0.4-0.5c0.1-0.2,0.1-0.5,0.1-0.7
			s0-0.5-0.1-0.6c-0.1-0.2-0.2-0.4-0.4-0.5c-0.1-0.1-0.4-0.2-0.6-0.4c-0.2-0.1-0.5-0.1-0.7-0.1h-1.2V56.6z"/>
	</g>
</g>
</svg>
